<svg width="820" height="260" viewBox="0 0 820 260" fill="none" xmlns="http://www.w3.org/2000/svg">
<path d="M19.4238 140.378C33.3101 140.864 47.0888 141.785 60.9112 143.191C66.4623 143.755 72.0154 144.299 77.5683 144.843C79.3924 145.023 79.3924 145.023 81.2534 145.206C91.9556 146.251 102.664 147.23 113.374 148.195C114.231 148.272 115.089 148.35 115.973 148.429C124.578 149.205 133.183 149.978 141.788 150.745C145.037 151.035 148.287 151.327 151.536 151.62C153.042 151.755 154.549 151.89 156.056 152.023C163.564 152.686 171.048 153.425 178.525 154.391C186.134 155.374 193.752 156.084 201.397 156.726C204.396 156.984 207.395 157.244 210.394 157.504C211.187 157.573 211.981 157.641 212.799 157.712C223.093 158.605 233.382 159.554 243.67 160.5C245.735 160.689 247.801 160.879 249.866 161.069C255.138 161.553 260.41 162.038 265.682 162.523C269.896 162.911 274.111 163.298 278.326 163.685C314.446 167.003 350.566 170.323 386.673 173.787C406.284 175.667 425.897 177.521 445.514 179.332C447.344 179.501 449.173 179.67 451.002 179.839C452.846 180.009 454.689 180.179 456.532 180.349C457.45 180.434 458.367 180.519 459.311 180.606C463.958 181.035 468.605 181.464 473.253 181.893C495.114 183.91 516.96 186.017 538.794 188.311C599.524 194.665 660.574 197.403 721.487 191.503C723.403 191.322 725.32 191.141 727.237 190.96C731.83 190.523 736.422 190.074 741.013 189.618C743.177 189.403 745.341 189.191 747.505 188.979C762.046 187.535 776.311 185.272 790.651 182.464C795.234 181.574 799.784 180.884 804.424 180.378C805.272 188.18 802.11 193.898 797.405 199.996C792.601 205.531 787.47 210.243 781.424 214.378C780.612 214.94 779.8 215.502 778.963 216.082C749.175 235.03 709.715 238.695 675.424 242.003C674.168 242.127 672.913 242.25 671.619 242.377C651.947 244.196 632.233 244.618 612.487 244.628C611.337 244.629 610.185 244.63 609 244.63C566.585 244.592 524.507 241.546 482.424 236.378C483.494 233.054 484.565 229.844 486.151 226.73C486.46 226.118 486.77 225.505 487.088 224.875C487.405 224.257 487.723 223.64 488.049 223.003C488.374 222.363 488.699 221.722 489.034 221.062C489.827 219.499 490.625 217.938 491.424 216.378C490.782 216.394 490.14 216.409 489.479 216.425C482.005 216.523 474.739 215.915 467.319 215.066C466.114 214.933 464.908 214.8 463.667 214.662C459.856 214.24 456.046 213.809 452.237 213.378C449.637 213.089 447.038 212.8 444.438 212.511C438.099 211.807 431.762 211.095 425.424 210.378C424.786 211.522 424.148 212.665 423.491 213.843C422.656 215.334 421.822 216.825 420.987 218.316C420.566 219.071 420.145 219.825 419.711 220.603C419.309 221.322 418.906 222.04 418.491 222.781C418.119 223.446 417.747 224.111 417.364 224.796C416.424 226.378 416.424 226.378 415.424 227.378C412.988 227.395 410.605 227.322 408.174 227.191C406.95 227.125 406.95 227.125 405.7 227.057C396.707 226.498 387.756 225.537 378.799 224.566C377.734 224.451 377.734 224.451 376.646 224.333C366.507 223.231 356.383 222.012 346.259 220.773C328.231 218.569 310.187 216.526 292.137 214.515C283.359 213.537 274.581 212.552 265.803 211.566C264.948 211.47 264.093 211.374 263.212 211.275C249.277 209.709 235.347 208.109 221.424 206.441C220.627 206.345 219.829 206.25 219.008 206.152C212.707 205.396 206.407 204.633 200.112 203.83C199.399 203.739 198.686 203.648 197.952 203.555C196.004 203.307 194.056 203.056 192.108 202.804C186.227 202.124 180.333 201.729 174.424 201.378C175.09 196.969 176.691 193.113 178.487 189.066C178.768 188.421 179.05 187.776 179.34 187.111C180.031 185.531 180.727 183.955 181.424 182.378C180.489 182.328 179.553 182.278 178.589 182.227C174.242 181.991 169.896 181.749 165.549 181.503C164.77 181.459 163.99 181.415 163.187 181.37C153.725 180.827 144.321 180.176 134.914 178.993C129.375 178.312 123.998 178.219 118.424 178.378C116.444 182.998 114.464 187.618 112.424 192.378C101.176 191.843 90.1511 190.667 78.998 189.121C75.6074 188.653 72.2281 188.246 68.8183 187.949C54.2882 186.638 43.9237 180.996 34.5488 170.003C31.157 165.631 28.2977 161.045 25.5488 156.253C25.1674 155.597 24.786 154.94 24.3931 154.264C23.8553 153.296 23.8553 153.296 23.3066 152.308C22.8331 151.461 22.8331 151.461 22.3501 150.597C20.9657 147.281 20.2455 143.875 19.4238 140.378Z" fill="#2C6935"/>
<path d="M351.904 16.0028C383.241 16.0188 414.238 17.1047 445.425 20.3787C447.174 20.5567 448.924 20.7349 450.673 20.9119C460.608 21.9309 470.52 23.0967 480.425 24.3787C482.061 24.5847 482.061 24.5847 483.73 24.7967C495.696 26.3147 507.572 28.1437 519.425 30.3787C520.529 30.5837 521.634 30.7879 522.773 30.9998C540.458 34.2878 557.979 37.9697 575.425 42.3787C577.242 42.8307 577.242 42.8308 579.096 43.2928C647.224 60.2708 719.47 84.7098 773.424 131.379C773.985 131.859 774.546 132.34 775.124 132.835C785.246 141.578 794.675 151.745 801.424 163.379V166.379C797.654 167.173 793.883 167.963 790.112 168.754C789.059 168.975 788.007 169.197 786.923 169.425C783.76 170.087 780.592 170.736 777.424 171.379C776.591 171.552 775.757 171.725 774.898 171.903C731.666 180.377 685.846 181.656 641.924 181.629C640.863 181.628 639.8 181.627 638.705 181.627C635.685 181.62 632.664 181.604 629.643 181.582C628.768 181.577 627.893 181.573 626.992 181.568C621.63 181.508 616.351 181.143 611.015 180.621C607.459 180.288 603.914 180.113 600.346 179.949C598.856 179.877 597.366 179.805 595.875 179.732C594.726 179.677 594.725 179.677 593.552 179.62C573.367 178.631 553.275 177.068 533.229 174.443C524.58 173.342 515.912 172.555 507.227 171.808C504.417 171.566 501.608 171.32 498.799 171.073C491.807 170.46 484.814 169.852 477.822 169.245C470.968 168.65 464.114 168.052 457.26 167.449C456.294 167.364 455.326 167.279 454.329 167.191C440.281 165.95 426.254 164.564 412.233 163.055C398.088 161.532 383.934 160.198 369.763 158.943C361.408 158.202 353.056 157.43 344.703 156.66C343.101 156.512 341.499 156.365 339.897 156.217C336.672 155.921 333.447 155.623 330.222 155.326C326.98 155.028 323.739 154.728 320.498 154.43C300.072 152.55 279.647 150.656 259.225 148.736C253 148.151 246.775 147.567 240.55 146.984C238.069 146.751 235.588 146.519 233.107 146.286C228.492 145.854 223.876 145.421 219.261 144.988C215.718 144.656 212.175 144.324 208.632 143.992C207.923 143.925 207.215 143.859 206.486 143.791C195.151 142.728 183.817 141.665 172.483 140.602C164.971 139.897 157.459 139.192 149.947 138.489C148.952 138.396 148.952 138.396 147.938 138.3C144.677 137.995 141.415 137.69 138.154 137.384C131.719 136.782 125.283 136.177 118.848 135.57C114.624 135.171 110.399 134.775 106.175 134.379C104.979 134.266 104.979 134.266 103.758 134.152C92.2028 133.068 80.642 132.044 69.0788 131.041C66.7201 130.836 64.3612 130.631 62.0026 130.425C60.4249 130.288 58.8469 130.151 57.2692 130.013C56.4864 129.945 55.7036 129.877 54.8971 129.807C50.1921 129.398 45.4866 128.993 40.7809 128.591C37.8445 128.34 34.9084 128.085 31.9723 127.829C30.5868 127.709 29.2009 127.59 27.8151 127.474C25.9091 127.313 24.0037 127.146 22.0983 126.979C21.0223 126.887 19.9462 126.795 18.8376 126.7C16.4251 126.379 16.4245 126.379 15.4245 125.379C14.1969 117.817 15.6077 112.769 19.9713 106.597C20.786 105.522 21.6042 104.449 22.4245 103.379C22.9395 102.693 23.4544 102.007 23.985 101.3C30.1881 93.0577 36.5025 84.9567 43.5573 77.4217C44.9099 75.9418 46.1971 74.4009 47.4401 72.828C83.4021 28.442 177.891 26.6642 229.932 21.1112C267.572 17.1892 305.38 15.9638 343.205 16.0008C346.104 16.0038 349.004 16.0028 351.904 16.0028ZM248.987 32.2528C228.082 32.2008 207.366 32.7229 186.555 34.7908C183.925 35.0578 181.295 35.3221 178.663 35.5741C176.892 35.7421 175.12 35.9137 173.349 36.0897C172.491 36.1757 171.66 36.2606 170.828 36.3436C166.317 36.7676 162.451 37.1769 158.424 39.3778C164.244 39.4778 170.064 39.5804 175.883 39.6854C178.293 39.7294 180.702 39.7732 183.112 39.8162C198.507 40.0782 213.882 40.4047 229.257 41.2557C229.993 41.2977 230.71 41.3378 231.424 41.3778C249.653 42.3918 267.716 44.3192 285.792 46.8592C287.027 47.0362 288.226 47.2068 289.424 47.3778C315.924 51.1638 342.564 55.8593 368.385 62.9803C371.695 63.9043 375.011 64.7982 378.339 65.6522C382.281 66.6621 386.216 67.6947 390.146 68.7567C390.92 68.9687 391.672 69.1738 392.424 69.3778C434.345 80.7967 475.425 97.1942 514.188 116.736C515.822 117.565 515.823 117.565 517.424 118.378C539.607 130.041 539.608 130.041 561.424 142.378C548.877 141.389 536.365 140.183 523.86 138.76C510.841 137.278 497.818 135.902 484.772 134.683C467.234 133.049 449.711 131.296 432.196 129.437C422.065 128.361 411.935 127.311 401.789 126.402C394.695 125.769 387.603 125.112 380.514 124.425C322.872 118.825 265.135 114.019 207.316 110.662C204.9 110.523 202.485 110.382 200.069 110.238C178.01 108.909 155.947 107.964 133.862 107.194C132.699 107.154 131.57 107.115 130.441 107.076C128.257 106.998 126.073 106.922 123.889 106.844C119.085 106.686 114.291 106.537 109.501 106.13C103.26 105.555 97.1006 105.265 90.8317 105.265C89.6786 105.271 88.5593 105.276 87.4401 105.281C83.7761 105.285 80.1119 105.292 76.4479 105.304C73.9109 105.313 71.3736 105.319 68.8366 105.324C61.3659 105.336 53.8951 105.353 46.4245 105.378V107.378C71.1054 109.39 95.7709 111.551 120.431 113.804C124.166 114.145 127.901 114.484 131.636 114.824C151.881 116.662 172.123 118.526 192.359 120.462C216.836 122.804 241.316 125.112 265.796 127.42C274.267 128.219 282.737 129.017 291.208 129.818C297.325 130.396 303.441 130.973 309.559 131.55C313.204 131.893 316.85 132.236 320.495 132.581C323.867 132.9 327.239 133.219 330.612 133.536C331.955 133.663 333.259 133.785 334.563 133.908C342.109 134.619 349.657 135.318 357.209 135.964C358.75 136.096 360.29 136.228 361.831 136.36C364.803 136.615 367.776 136.871 370.749 137.117C377.581 137.682 384.375 138.315 391.151 139.389C396.238 140.214 401.309 140.842 406.437 141.348C407.514 141.45 408.559 141.55 409.604 141.649C411.968 141.881 414.332 142.114 416.696 142.345C423.959 143.049 431.222 143.761 438.484 144.482C439.194 144.552 439.883 144.621 440.573 144.689C454.091 146.029 467.601 147.44 481.107 148.894C485.022 149.317 488.937 149.739 492.852 150.16C504.049 151.363 515.246 152.563 526.442 153.784C563.161 157.787 599.685 161.721 636.666 161.603C639.756 161.584 642.847 161.566 645.939 161.564C648.053 161.564 650.167 161.562 652.281 161.557C653.303 161.553 654.296 161.55 655.289 161.546C661.109 161.539 666.682 161.359 672.424 160.378V159.378C662.795 150.625 651.974 143.196 641.186 135.952C640.544 135.523 639.922 135.107 639.299 134.691C618.927 121.068 597.395 110.004 575.188 99.661C574.249 99.225 573.336 98.8017 572.424 98.3778C537.856 82.2228 501.068 68.6443 463.953 59.6873C461.362 59.0763 458.771 58.4663 456.19 57.8133C452.348 56.8123 448.502 55.833 444.641 54.9071C443.887 54.7281 443.156 54.5528 442.424 54.3778C408.581 46.2128 374.179 40.1511 339.527 36.7801C336.775 36.5131 334.025 36.2351 331.275 35.9461C304.984 33.1802 278.879 32.3106 252.455 32.2596C251.276 32.2576 250.131 32.2548 248.987 32.2528Z" fill="#2C6935"/>
</svg>
