<svg width="820" height="820" viewBox="0 0 820 820" fill="none" xmlns="http://www.w3.org/2000/svg">
<path d="M343.204 296.001C346.104 296.004 349.004 296.003 351.904 296.003C383.241 296.019 414.238 297.105 445.425 300.379C447.174 300.557 448.923 300.735 450.672 300.912C460.608 301.931 470.519 303.097 480.425 304.379C482.061 304.585 482.061 304.585 483.73 304.797C495.696 306.315 507.572 308.144 519.425 310.379C520.529 310.584 521.634 310.788 522.773 311C540.458 314.288 557.979 317.97 575.425 322.379C577.242 322.831 577.242 322.831 579.096 323.293C647.224 340.271 719.47 364.71 773.424 411.379C773.985 411.859 774.545 412.34 775.123 412.835C785.245 421.578 794.674 431.745 801.424 443.379C801.424 444.369 801.424 445.359 801.424 446.379C797.654 447.173 793.883 447.963 790.112 448.754C789.059 448.975 788.007 449.197 786.923 449.425C783.759 450.087 780.592 450.736 777.424 451.379C776.591 451.552 775.757 451.725 774.898 451.903C731.666 460.377 685.846 461.656 641.924 461.629C640.862 461.628 639.799 461.627 638.704 461.627C635.684 461.62 632.664 461.604 629.643 461.582C628.768 461.577 627.893 461.573 626.992 461.568C621.63 461.508 616.351 461.143 611.015 460.621C607.459 460.288 603.914 460.113 600.346 459.949C598.856 459.877 597.365 459.805 595.874 459.732C594.725 459.677 594.725 459.677 593.552 459.62C573.367 458.631 553.275 457.068 533.229 454.443C524.58 453.342 515.912 452.555 507.227 451.808C504.417 451.566 501.608 451.32 498.799 451.073C491.807 450.46 484.814 449.852 477.822 449.245C470.968 448.65 464.114 448.052 457.26 447.449C456.293 447.364 455.325 447.279 454.328 447.191C440.28 445.95 426.254 444.564 412.233 443.055C398.088 441.532 383.934 440.198 369.763 438.943C361.408 438.202 353.055 437.43 344.702 436.66C343.1 436.512 341.499 436.365 339.897 436.217C336.672 435.921 333.447 435.623 330.222 435.326C326.98 435.028 323.738 434.729 320.497 434.431C300.071 432.551 279.647 430.656 259.225 428.736C253 428.151 246.775 427.567 240.55 426.984C238.069 426.751 235.588 426.519 233.107 426.286C228.492 425.854 223.876 425.421 219.261 424.988C215.718 424.656 212.175 424.324 208.632 423.992C207.923 423.925 207.215 423.859 206.486 423.791C195.151 422.728 183.817 421.665 172.483 420.602C164.971 419.897 157.459 419.192 149.947 418.489C148.952 418.396 148.952 418.396 147.938 418.3C144.677 417.995 141.415 417.69 138.154 417.384C131.719 416.782 125.283 416.177 118.848 415.57C114.624 415.171 110.399 414.775 106.175 414.379C104.979 414.266 104.979 414.266 103.758 414.152C92.2023 413.068 80.6415 412.044 69.0782 411.041C66.7195 410.836 64.3608 410.631 62.0022 410.425C60.4245 410.288 58.8469 410.151 57.2692 410.013C56.4863 409.945 55.7034 409.877 54.8968 409.807C50.1918 409.398 45.4864 408.993 40.7807 408.591C37.8442 408.34 34.9081 408.085 31.972 407.829C30.5865 407.709 29.2009 407.59 27.8151 407.474C25.909 407.313 24.0034 407.146 22.0979 406.979C21.0218 406.887 19.9457 406.795 18.837 406.7C16.4245 406.379 16.4245 406.379 15.4245 405.379C14.1969 397.817 15.6077 392.77 19.9714 386.597C20.7861 385.522 21.6042 384.449 22.4245 383.379C22.9395 382.693 23.4545 382.007 23.9851 381.3C30.1882 373.058 36.5025 364.957 43.5573 357.422C44.91 355.942 46.1971 354.401 47.4401 352.828C83.4021 308.442 177.891 306.664 229.932 301.111C267.572 297.189 305.379 295.964 343.204 296.001Z" fill="#141414"/>
<path d="M19.4243 420.378C33.3106 420.864 47.0893 421.785 60.9117 423.191C66.4628 423.755 72.0159 424.299 77.5688 424.843C79.3929 425.023 79.3929 425.023 81.2539 425.206C91.9561 426.251 102.664 427.23 113.374 428.195C114.231 428.272 115.089 428.35 115.973 428.429C124.578 429.205 133.183 429.978 141.788 430.745C145.037 431.035 148.287 431.327 151.536 431.62C153.042 431.755 154.549 431.89 156.056 432.023C163.564 432.686 171.048 433.425 178.525 434.391C186.134 435.374 193.752 436.084 201.397 436.726C204.396 436.984 207.395 437.244 210.394 437.504C211.187 437.573 211.981 437.641 212.799 437.712C223.093 438.605 233.382 439.554 243.67 440.5C245.735 440.689 247.801 440.879 249.866 441.069C255.138 441.553 260.41 442.038 265.682 442.523C269.896 442.911 274.111 443.298 278.326 443.685C314.446 447.003 350.566 450.323 386.673 453.787C406.284 455.667 425.897 457.521 445.514 459.332C447.344 459.501 449.173 459.67 451.002 459.839C452.846 460.009 454.689 460.179 456.532 460.349C457.45 460.434 458.367 460.519 459.311 460.606C463.958 461.035 468.605 461.464 473.253 461.893C495.114 463.91 516.961 466.017 538.795 468.311C599.525 474.665 660.574 477.403 721.487 471.503C723.403 471.322 725.32 471.141 727.237 470.96C731.83 470.523 736.422 470.074 741.013 469.618C743.177 469.403 745.342 469.191 747.506 468.979C762.047 467.535 776.311 465.272 790.651 462.464C795.234 461.574 799.784 460.884 804.424 460.378C805.272 468.18 802.11 473.898 797.405 479.996C792.601 485.531 787.47 490.243 781.424 494.378C780.612 494.94 779.8 495.502 778.963 496.082C749.175 515.03 709.715 518.695 675.424 522.003C674.168 522.127 672.913 522.25 671.619 522.377C651.947 524.196 632.233 524.618 612.487 524.628C611.337 524.629 610.186 524.63 609.001 524.63C566.586 524.592 524.507 521.546 482.424 516.378C483.494 513.054 484.565 509.844 486.151 506.73C486.46 506.118 486.77 505.505 487.088 504.875C487.405 504.257 487.723 503.64 488.049 503.003C488.374 502.363 488.699 501.722 489.034 501.062C489.827 499.499 490.625 497.938 491.424 496.378C490.782 496.394 490.14 496.409 489.479 496.425C482.005 496.523 474.739 495.915 467.319 495.066C466.114 494.933 464.908 494.8 463.667 494.662C459.856 494.24 456.046 493.809 452.237 493.378C449.637 493.089 447.038 492.8 444.438 492.511C438.099 491.807 431.762 491.095 425.424 490.378C424.786 491.522 424.148 492.665 423.491 493.843C422.656 495.334 421.822 496.825 420.987 498.316C420.566 499.071 420.145 499.825 419.711 500.603C419.309 501.322 418.906 502.04 418.491 502.781C418.119 503.446 417.747 504.111 417.364 504.796C416.424 506.378 416.424 506.378 415.424 507.378C412.988 507.395 410.605 507.322 408.174 507.191C406.95 507.125 406.95 507.125 405.7 507.057C396.707 506.498 387.756 505.537 378.799 504.566C377.734 504.451 377.734 504.451 376.646 504.333C366.507 503.231 356.383 502.012 346.259 500.773C328.231 498.569 310.187 496.526 292.137 494.515C283.359 493.537 274.581 492.552 265.803 491.566C264.948 491.47 264.093 491.374 263.212 491.275C249.277 489.709 235.347 488.109 221.424 486.441C220.627 486.345 219.829 486.25 219.008 486.152C212.707 485.396 206.407 484.633 200.112 483.83C199.399 483.739 198.686 483.648 197.952 483.555C196.004 483.307 194.056 483.056 192.108 482.804C186.227 482.124 180.333 481.729 174.424 481.378C175.09 476.969 176.691 473.113 178.487 469.066C178.768 468.421 179.05 467.776 179.34 467.111C180.031 465.531 180.727 463.955 181.424 462.378C180.489 462.328 179.553 462.278 178.589 462.227C174.242 461.991 169.896 461.749 165.549 461.503C164.77 461.459 163.99 461.415 163.187 461.37C153.725 460.827 144.321 460.176 134.914 458.993C129.375 458.312 123.998 458.219 118.424 458.378C116.444 462.998 114.464 467.618 112.424 472.378C101.176 471.843 90.1516 470.667 78.9985 469.121C75.6079 468.653 72.2286 468.246 68.8188 467.949C54.2887 466.638 43.9242 460.996 34.5493 450.003C31.1575 445.631 28.2982 441.045 25.5493 436.253C25.1679 435.597 24.7865 434.94 24.3936 434.264C23.8558 433.296 23.8558 433.296 23.3071 432.308C22.8336 431.461 22.8336 431.461 22.3506 430.597C20.9662 427.281 20.246 423.875 19.4243 420.378Z" fill="#141414"/>
<path d="M248.987 312.253C250.131 312.255 251.275 312.257 252.454 312.259C278.878 312.31 304.984 313.18 331.275 315.946C334.025 316.235 336.775 316.513 339.527 316.78C374.179 320.151 408.581 326.213 442.424 334.378C443.156 334.553 443.887 334.728 444.641 334.907C448.502 335.833 452.348 336.812 456.19 337.813C458.771 338.466 461.361 339.076 463.952 339.687C501.067 348.644 537.855 362.223 572.424 378.378C573.336 378.802 574.249 379.225 575.188 379.661C597.395 390.004 618.927 401.068 639.299 414.691C639.922 415.107 640.544 415.523 641.186 415.952C651.974 423.196 662.795 430.625 672.424 439.378C672.424 439.708 672.424 440.038 672.424 440.378C666.681 441.359 661.108 441.539 655.288 441.546C654.295 441.55 653.303 441.553 652.281 441.557C650.167 441.562 648.053 441.564 645.939 441.564C642.847 441.566 639.756 441.584 636.665 441.603C599.684 441.721 563.161 437.787 526.442 433.784C515.246 432.563 504.049 431.363 492.852 430.16C488.937 429.739 485.022 429.317 481.107 428.894C467.601 427.44 454.091 426.029 440.573 424.689C439.883 424.621 439.194 424.552 438.484 424.482C431.222 423.761 423.959 423.048 416.696 422.344C414.332 422.113 411.968 421.881 409.604 421.649C408.559 421.55 407.514 421.45 406.437 421.348C401.309 420.842 396.238 420.214 391.151 419.389C384.375 418.314 377.581 417.682 370.748 417.117C367.775 416.871 364.802 416.615 361.83 416.36C360.289 416.228 358.749 416.096 357.208 415.964C349.656 415.318 342.109 414.619 334.563 413.908C333.259 413.785 331.955 413.663 330.612 413.536C327.239 413.219 323.866 412.9 320.494 412.581C316.849 412.236 313.204 411.893 309.559 411.55C303.441 410.973 297.324 410.396 291.207 409.818C282.736 409.017 274.266 408.219 265.795 407.42C241.315 405.112 216.836 402.804 192.359 400.462C172.123 398.526 151.881 396.662 131.636 394.824C127.901 394.484 124.166 394.144 120.431 393.803C95.7706 391.55 71.1052 389.39 46.4243 387.378C46.4243 386.718 46.4243 386.058 46.4243 385.378C53.895 385.353 61.3657 385.336 68.8364 385.324C71.3735 385.319 73.9107 385.312 76.4478 385.303C80.1118 385.291 83.7759 385.285 87.4399 385.281C88.5592 385.276 89.6784 385.271 90.8316 385.265C97.1005 385.265 103.259 385.555 109.5 386.13C114.29 386.537 119.085 386.685 123.889 386.843C126.073 386.921 128.257 386.998 130.441 387.076C131.57 387.115 132.699 387.154 133.862 387.194C155.947 387.964 178.01 388.909 200.069 390.238C202.485 390.382 204.9 390.523 207.316 390.662C265.135 394.019 322.872 398.825 380.514 404.425C387.603 405.112 394.694 405.769 401.788 406.402C411.935 407.311 422.065 408.361 432.196 409.437C449.711 411.296 467.234 413.049 484.772 414.683C497.818 415.902 510.841 417.277 523.86 418.759C536.365 420.182 548.877 421.389 561.424 422.378C539.607 410.041 539.607 410.041 517.424 398.378C515.822 397.565 515.822 397.565 514.188 396.736C475.425 377.194 434.345 360.797 392.424 349.378C391.672 349.174 390.92 348.969 390.146 348.757C386.216 347.695 382.281 346.662 378.338 345.652C375.01 344.798 371.695 343.904 368.385 342.98C342.564 335.859 315.924 331.164 289.424 327.378C288.225 327.207 287.026 327.036 285.791 326.859C267.715 324.319 249.653 322.392 231.424 321.378C230.709 321.338 229.993 321.298 229.256 321.256C213.881 320.405 198.507 320.078 183.112 319.816C180.702 319.773 178.293 319.729 175.883 319.685C170.064 319.58 164.244 319.478 158.424 319.378C162.451 317.177 166.316 316.767 170.827 316.343C171.659 316.26 172.491 316.176 173.349 316.09C175.12 315.914 176.891 315.742 178.662 315.574C181.294 315.322 183.925 315.058 186.555 314.791C207.366 312.723 228.082 312.201 248.987 312.253Z" fill="#F9F9F9"/>
</svg>
